# xmcd CD database file
#
# Track frame offsets:
#	150
#	16807
#	31978
#	54262
#	77910
#	96436
#	118190
#	134148
#	157783
#	177812
#
# Disc length: 2640 seconds
#
# Revision: 0
# Processed by: cddbd v1.5.1PL0 Copyright (c) Steve Scherf et al.
# Submitted via: CDex 1.51
#
DISCID=7a0a4e0a
DTITLE=Toño Rosario - Amor Jollao
DYEAR=1993
DGENRE=Merengue
TTITLE0=El Hijo Ausente
TTITLE1=Irresistible
TTITLE2=Quisiera Amarte Menos
TTITLE3=Pa'l Colmado
TTITLE4=Es Mentira
TTITLE5=El Bailabien
TTITLE6=La Gozadera III
TTITLE7=Mi Secreto
TTITLE8=A Mi gente
TTITLE9=No Te Perdono Más
EXTD=YEAR: 1993
EXTT0=
EXTT1=
EXTT2=
EXTT3=
EXTT4=
EXTT5=
EXTT6=
EXTT7=
EXTT8=
EXTT9=
PLAYORDER=
